<svg xmlns="http://www.w3.org/2000/svg" xmlns:xlink="http://www.w3.org/1999/xlink" version="1.1" width="256" height="256" viewBox="0 0 256 256" xml:space="preserve">
<desc>Created with Fabric.js 1.7.22</desc>
<defs>
</defs>
<g transform="translate(128 128) scale(0.91 0.91)" style="">
	<g style="stroke: none; stroke-width: 0; stroke-dasharray: none; stroke-linecap: butt; stroke-linejoin: miter; stroke-miterlimit: 10; fill: none; fill-rule: nonzero; opacity: 1;" transform="translate(-139.05 -139.05) scale(3.09 3.09)" >
	<path d="M 89.846 70.695 c -0.363 -0.734 -1.254 -1.036 -1.988 -0.672 c -6.19 3.061 -12.901 4.57 -20.074 4.539 l 7.303 -24.954 c 0.221 -0.755 -0.186 -1.552 -0.929 -1.815 l -7.346 -2.599 V 23.937 c 0 -0.819 -0.664 -1.483 -1.483 -1.483 h -5.121 V 11.486 c 0 -0.819 -0.664 -1.484 -1.484 -1.484 H 46.484 V 4.056 c 0 -0.819 -0.664 -1.484 -1.484 -1.484 s -1.484 0.664 -1.484 1.484 v 5.946 H 31.276 c -0.819 0 -1.484 0.664 -1.484 1.484 v 10.968 h -5.121 c -0.819 0 -1.484 0.664 -1.484 1.483 v 21.257 l -7.346 2.599 c -0.742 0.263 -1.15 1.06 -0.929 1.815 l 4.671 15.962 C 13.5 66.017 7.307 67.473 0.942 69.972 c -0.763 0.299 -1.138 1.161 -0.839 1.923 c 0.299 0.763 1.158 1.136 1.923 0.839 c 14.762 -5.796 28.543 -5.803 42.182 0.005 c 8.367 3.199 16.321 4.798 23.815 4.798 c 7.535 0 14.604 -1.619 21.15 -4.854 C 89.908 72.32 90.209 71.43 89.846 70.695 z M 32.759 12.97 h 24.482 v 9.484 H 32.759 V 12.97 z M 26.155 25.421 h 37.691 v 18.723 l -18.35 -6.492 c -0.014 -0.005 -0.029 -0.003 -0.043 -0.007 c -0.143 -0.046 -0.293 -0.078 -0.452 -0.078 s -0.309 0.032 -0.452 0.078 c -0.014 0.004 -0.029 0.002 -0.043 0.007 l -18.351 6.492 V 25.421 z M 22.634 65.429 l -4.479 -15.308 l 25.361 -8.972 v 19.596 c 0 0.819 0.664 1.483 1.484 1.483 s 1.484 -0.664 1.484 -1.483 V 41.15 l 25.362 8.972 l -7.119 24.328 c -6.159 -0.393 -12.637 -1.873 -19.408 -4.461 C 37.845 66.806 30.321 65.297 22.634 65.429 z" style="stroke: none; stroke-width: 1; stroke-dasharray: none; stroke-linecap: butt; stroke-linejoin: miter; stroke-miterlimit: 10; fill: rgb(127,131,140); fill-rule: nonzero; opacity: 1;" transform=" matrix(1 0 0 1 0 0) " stroke-linecap="round" />
	<path d="M 60.105 31.849 c 0 -0.819 -0.664 -1.483 -1.484 -1.483 H 31.379 c -0.819 0 -1.483 0.664 -1.483 1.483 s 0.664 1.483 1.483 1.483 h 27.242 C 59.44 33.332 60.105 32.668 60.105 31.849 z" style="stroke: none; stroke-width: 1; stroke-dasharray: none; stroke-linecap: butt; stroke-linejoin: miter; stroke-miterlimit: 10; fill: rgb(127,131,140); fill-rule: nonzero; opacity: 1;" transform=" matrix(1 0 0 1 0 0) " stroke-linecap="round" />
	<path d="M 52.265 16.519 h -14.53 c -0.819 0 -1.484 0.664 -1.484 1.484 c 0 0.819 0.664 1.483 1.484 1.483 h 14.53 c 0.819 0 1.484 -0.664 1.484 -1.483 C 53.749 17.183 53.084 16.519 52.265 16.519 z" style="stroke: none; stroke-width: 1; stroke-dasharray: none; stroke-linecap: butt; stroke-linejoin: miter; stroke-miterlimit: 10; fill: rgb(127,131,140); fill-rule: nonzero; opacity: 1;" transform=" matrix(1 0 0 1 0 0) " stroke-linecap="round" />
	<path d="M 35.11 46.972 c -2.385 0 -4.325 2.161 -4.325 4.817 s 1.94 4.817 4.325 4.817 c 2.385 0 4.325 -2.161 4.325 -4.817 S 37.495 46.972 35.11 46.972 z M 35.11 53.638 c -0.736 0 -1.358 -0.847 -1.358 -1.85 s 0.622 -1.85 1.358 -1.85 c 0.736 0 1.358 0.847 1.358 1.85 S 35.846 53.638 35.11 53.638 z" style="stroke: none; stroke-width: 1; stroke-dasharray: none; stroke-linecap: butt; stroke-linejoin: miter; stroke-miterlimit: 10; fill: rgb(127,131,140); fill-rule: nonzero; opacity: 1;" transform=" matrix(1 0 0 1 0 0) " stroke-linecap="round" />
	<path d="M 54.89 46.972 c -2.385 0 -4.325 2.161 -4.325 4.817 s 1.94 4.817 4.325 4.817 c 2.385 0 4.325 -2.161 4.325 -4.817 S 57.275 46.972 54.89 46.972 z M 54.89 53.638 c -0.736 0 -1.358 -0.847 -1.358 -1.85 s 0.622 -1.85 1.358 -1.85 c 0.736 0 1.358 0.847 1.358 1.85 S 55.626 53.638 54.89 53.638 z" style="stroke: none; stroke-width: 1; stroke-dasharray: none; stroke-linecap: butt; stroke-linejoin: miter; stroke-miterlimit: 10; fill: rgb(127,131,140); fill-rule: nonzero; opacity: 1;" transform=" matrix(1 0 0 1 0 0) " stroke-linecap="round" />
	<path d="M 68.023 87.427 c -7.494 0 -15.448 -1.599 -23.815 -4.798 c -13.639 -5.807 -27.42 -5.801 -42.182 -0.005 c -0.765 0.298 -1.624 -0.076 -1.923 -0.839 c -0.299 -0.762 0.076 -1.624 0.839 -1.923 c 15.523 -6.095 30.038 -6.089 44.377 0.016 c 15.927 6.09 30.257 6.107 42.54 0.035 c 0.734 -0.362 1.625 -0.062 1.988 0.672 c 0.363 0.735 0.062 1.625 -0.672 1.988 C 82.628 85.808 75.559 87.427 68.023 87.427 z" style="stroke: none; stroke-width: 1; stroke-dasharray: none; stroke-linecap: butt; stroke-linejoin: miter; stroke-miterlimit: 10; fill: rgb(127,131,140); fill-rule: nonzero; opacity: 1;" transform=" matrix(1 0 0 1 0 0) " stroke-linecap="round" />
</g>
</g>
</svg>