<svg xmlns="http://www.w3.org/2000/svg" xmlns:xlink="http://www.w3.org/1999/xlink" version="1.1" width="256" height="256" viewBox="0 0 256 256" xml:space="preserve">
<desc>Created with Fabric.js 1.7.22</desc>
<defs>
</defs>
<g transform="translate(128 128) scale(0.72 0.72)" style="">
	<g style="stroke: none; stroke-width: 0; stroke-dasharray: none; stroke-linecap: butt; stroke-linejoin: miter; stroke-miterlimit: 10; fill: none; fill-rule: nonzero; opacity: 1;" transform="translate(-175.05 -175.05000000000004) scale(3.89 3.89)" >
	<path d="M 38.225 30.843 c 1.369 -0.714 2.698 -0.713 4.065 0 c 0.147 0.077 0.306 0.113 0.461 0.113 c 0.361 0 0.709 -0.195 0.888 -0.538 c 0.255 -0.489 0.065 -1.094 -0.424 -1.349 c -1.963 -1.024 -3.954 -1.024 -5.915 0 c -0.49 0.255 -0.68 0.86 -0.424 1.349 C 37.132 30.91 37.736 31.1 38.225 30.843 z" style="stroke: none; stroke-width: 1; stroke-dasharray: none; stroke-linecap: butt; stroke-linejoin: miter; stroke-miterlimit: 10; fill: rgb(255,255,255); fill-rule: nonzero; opacity: 1;" transform=" matrix(1 0 0 1 0 0) " stroke-linecap="round" />
	<path d="M 47.248 30.957 c 0.155 0 0.313 -0.036 0.461 -0.113 c 1.371 -0.714 2.7 -0.712 4.065 0 c 0.492 0.255 1.094 0.065 1.35 -0.424 c 0.255 -0.489 0.065 -1.094 -0.424 -1.349 c -1.962 -1.023 -3.953 -1.024 -5.915 0 c -0.49 0.255 -0.68 0.859 -0.425 1.349 C 46.539 30.761 46.887 30.957 47.248 30.957 z" style="stroke: none; stroke-width: 1; stroke-dasharray: none; stroke-linecap: butt; stroke-linejoin: miter; stroke-miterlimit: 10; fill: rgb(255,255,255); fill-rule: nonzero; opacity: 1;" transform=" matrix(1 0 0 1 0 0) " stroke-linecap="round" />
	<path d="M 40.716 38.812 c -0.385 0.396 -0.377 1.029 0.019 1.414 c 1.371 1.336 2.814 2.004 4.259 2.004 c 1.444 0 2.891 -0.667 4.269 -2.001 c 0.397 -0.384 0.407 -1.018 0.023 -1.414 s -1.017 -0.406 -1.414 -0.023 c -1.993 1.93 -3.763 1.93 -5.742 0.002 C 41.735 38.408 41.103 38.417 40.716 38.812 z" style="stroke: none; stroke-width: 1; stroke-dasharray: none; stroke-linecap: butt; stroke-linejoin: miter; stroke-miterlimit: 10; fill: rgb(255,255,255); fill-rule: nonzero; opacity: 1;" transform=" matrix(1 0 0 1 0 0) " stroke-linecap="round" />
	<path d="M 64.194 52.406 l -6.809 -1.146 c -2.153 -0.363 -3.716 -2.063 -3.716 -4.064 l -0.03 -1.333 c 0.095 -0.09 0.199 -0.167 0.292 -0.259 c 0.743 -0.736 1.423 -1.543 2.021 -2.4 c 0.598 -0.858 1.122 -1.776 1.557 -2.731 c 0.821 -1.807 1.322 -3.728 1.489 -5.723 l 0.054 -0.782 c 2.151 -0.734 3.283 -2.814 3.132 -4.638 c -0.128 -1.555 -1.12 -2.647 -2.602 -3 l 0.022 -0.32 h 0.054 c 1.723 0 3.124 -1.401 3.124 -3.173 c 0 -1.417 -0.953 -2.602 -2.248 -2.984 V 17.43 c 0 -6.335 -3.847 -12.094 -9.644 -14.547 V 2.599 C 50.891 1.166 49.725 0 48.292 0 h -7.095 c -1.433 0 -2.599 1.166 -2.599 2.599 v 0.284 c -5.796 2.453 -9.643 8.212 -9.643 14.547 v 2.421 c -1.295 0.383 -2.249 1.575 -2.249 3.032 c 0 1.723 1.401 3.124 3.124 3.124 h 0.522 l 0.024 0.319 c -1.487 0.352 -2.481 1.445 -2.609 3.002 c -0.151 1.836 0.998 3.93 3.178 4.65 l 0.058 0.784 c 0.36 4.302 2.327 8.231 5.359 11.102 l -0.033 1.353 c 0 1.979 -1.563 3.679 -3.716 4.042 l -6.809 1.146 c -4.071 0.686 -7.026 3.979 -7.026 7.83 V 86.91 c 0 1.704 1.466 3.09 3.268 3.09 h 45.906 c 1.802 0 3.268 -1.386 3.268 -3.09 V 60.236 C 71.221 56.385 68.266 53.092 64.194 52.406 z M 57.054 53.232 l 0.693 0.117 l -8.051 7.291 l -3.504 -4.146 l 7.058 -5.302 C 54.202 52.229 55.522 52.974 57.054 53.232 z M 44.038 63.349 h 1.413 l 2.643 16.899 l -3.327 3.78 l -3.372 -3.784 L 44.038 63.349 z M 45.856 61.349 h -2.215 l -0.899 -1.047 l 2.008 -2.414 l 1.896 2.243 l 0.14 0.166 L 45.856 61.349 z M 60.191 29.492 c 0.06 0.737 -0.295 1.574 -0.977 2.131 l 0.224 -3.231 C 59.876 28.596 60.147 28.953 60.191 29.492 z M 30.955 17.43 c 0 -5.242 3.021 -10.024 7.643 -12.335 v 4.241 c 0 0.552 0.448 1 1 1 s 1 -0.448 1 -1 V 3.562 V 2.599 C 40.598 2.269 40.866 2 41.197 2 h 2.547 v 10.72 c 0 0.552 0.448 1 1 1 s 1 -0.448 1 -1 V 2 h 2.548 c 0.33 0 0.599 0.269 0.599 0.599 v 0.962 v 5.774 c 0 0.552 0.447 1 1 1 s 1 -0.448 1 -1 V 5.095 c 4.622 2.311 7.644 7.094 7.644 12.336 v 2.28 h -27.58 V 17.43 z M 28.706 22.834 c 0 -0.62 0.504 -1.124 1.124 -1.124 h 0.125 h 29.58 h 0.124 c 0.62 0 1.124 0.504 1.124 1.173 c 0 0.62 -0.504 1.124 -1.124 1.124 H 29.83 C 29.21 24.007 28.706 23.503 28.706 22.834 z M 29.76 29.492 c 0.045 -0.546 0.321 -0.906 0.769 -1.108 l 0.243 3.265 C 30.067 31.093 29.699 30.241 29.76 29.492 z M 32.997 34.604 l -0.64 -8.597 h 25.241 l -0.595 8.588 c -0.146 1.752 -0.589 3.451 -1.315 5.047 c -0.385 0.845 -0.848 1.657 -1.377 2.416 c -0.528 0.758 -1.13 1.472 -1.787 2.123 c -1.584 1.567 -3.451 2.747 -5.551 3.506 c -1.273 0.459 -2.674 0.459 -3.947 0 C 37.43 45.665 33.493 40.526 32.997 34.604 z M 42.347 49.568 c 0.855 0.31 1.754 0.464 2.653 0.464 s 1.798 -0.155 2.653 -0.464 c 1.453 -0.525 2.794 -1.25 4.038 -2.124 c 0.029 0.725 0.19 1.419 0.469 2.064 l -7.398 5.558 l -6.932 -5.534 c 0.285 -0.649 0.45 -1.347 0.478 -2.077 C 39.541 48.322 40.892 49.042 42.347 49.568 z M 32.946 53.232 c 1.521 -0.257 2.833 -0.995 3.784 -2.019 l 6.592 5.263 l -3.461 4.161 l -8.029 -7.217 L 32.946 53.232 z M 69.221 86.91 c 0 0.601 -0.568 1.09 -1.268 1.09 h -7.111 c 0.006 -2.3 0.002 -7.679 0.001 -8.971 c -0.001 -0.553 -0.448 -0.999 -1 -0.999 h -0.001 c -0.553 0.001 -1 0.449 -0.999 1.001 c 0.004 2.453 0.005 6.989 0 8.969 H 31.105 c -0.005 -1.988 -0.004 -6.551 -0.001 -8.969 c 0.001 -0.552 -0.446 -1 -0.999 -1.001 c 0 0 -0.001 0 -0.001 0 c -0.552 0 -0.999 0.446 -1 0.999 c -0.002 1.551 -0.006 6.73 0.001 8.971 h -7.058 c -0.699 0 -1.268 -0.489 -1.268 -1.09 V 60.236 c 0 -2.872 2.253 -5.335 5.358 -5.857 l 3.175 -0.535 l 9.985 8.975 c 0.184 0.165 0.422 0.256 0.668 0.256 c 0.024 0 0.048 -0.001 0.072 -0.003 c 0.271 -0.02 0.522 -0.148 0.696 -0.357 l 0.711 -0.854 l 0.678 0.789 l -2.777 17.752 c -0.046 0.295 0.042 0.596 0.241 0.819 l 4.437 4.98 c 0.189 0.213 0.461 0.335 0.747 0.335 c 0.001 0 0.002 0 0.003 0 c 0.287 -0.001 0.559 -0.124 0.748 -0.339 l 4.384 -4.98 c 0.196 -0.224 0.283 -0.522 0.237 -0.815 l -2.775 -17.743 l 0.725 -0.818 l 0.744 0.88 c 0.175 0.207 0.427 0.334 0.697 0.353 c 0.022 0.001 0.044 0.002 0.066 0.002 c 0.247 0 0.486 -0.092 0.671 -0.259 l 9.988 -9.044 l 3.604 0.607 c 3.104 0.522 5.358 2.985 5.358 5.857 V 86.91 z" style="stroke: none; stroke-width: 1; stroke-dasharray: none; stroke-linecap: butt; stroke-linejoin: miter; stroke-miterlimit: 10; fill: rgb(255,255,255); fill-rule: nonzero; opacity: 1;" transform=" matrix(1 0 0 1 0 0) " stroke-linecap="round" />
</g>
</g>
</svg>