<?xml version="1.0" encoding="utf-8"?>
<!-- Generator: Adobe Illustrator 18.0.0, SVG Export Plug-In . SVG Version: 6.00 Build 0)  -->
<!DOCTYPE svg PUBLIC "-//W3C//DTD SVG 1.1//EN" "http://www.w3.org/Graphics/SVG/1.1/DTD/svg11.dtd">
<svg version="1.1" id="Layer_1" xmlns="http://www.w3.org/2000/svg" xmlns:xlink="http://www.w3.org/1999/xlink" x="0px" y="0px"
	 width="400px" height="170px" viewBox="0 0 400 170" enable-background="new 0 0 400 170" xml:space="preserve">
<g>
	<path fill="#0747A6" d="M60,58.9c5.6,1.7,10.4,3.9,14.5,6.7L67.4,80c-4-2.5-8.3-4.4-13-5.8c-4.7-1.4-9-2.1-13-2.1
		c-4.1,0-7.3,0.7-9.6,2.2S28.3,78,28.3,81s1.4,5.3,4.1,6.9c2.8,1.6,7.4,3.4,13.8,5.5c6.1,1.8,11.2,3.6,15.2,5.4
		c4,1.8,7.4,4.5,10.3,8.1s4.3,8.4,4.3,14.3c0,8.8-3.3,15.5-9.9,20.1s-14.8,6.8-24.7,6.8c-6.8,0-13.4-1.1-19.9-3.3
		c-6.5-2.2-11.9-5.3-16.3-9.2l6.9-13.9c3.9,3.4,8.6,6.1,14.1,8.1c5.6,2,10.9,3.1,16.1,3.1c4.4,0,8-0.8,10.7-2.4s4.1-4,4.1-7.3
		c0-2.5-0.8-4.5-2.5-6.2c-1.7-1.6-3.7-2.9-6-3.9c-2.4-1-5.8-2.1-10.3-3.5c-6-1.8-10.9-3.6-14.6-5.3c-3.8-1.7-7-4.3-9.7-7.8
		c-2.7-3.4-4.1-8-4.1-13.8c0-8.6,3.2-15.1,9.5-19.6s14.3-6.7,23.7-6.7C48.8,56.4,54.4,57.2,60,58.9z"/>
	<path fill="#0747A6" d="M162,68.6c7.1,8,10.6,19.3,10.6,33.9c0,1.5-0.1,3.9-0.3,7.3h-68.2c1.6,7,4.9,12.5,9.8,16.5c5,4,11,6,18.1,6
		c4.9,0,9.5-0.9,13.9-2.7c4.4-1.8,8.2-4.4,11.5-7.8l10.3,11c-4.5,4.9-9.9,8.6-16.3,11.2c-6.3,2.6-13.3,4-21,4
		c-9.2,0-17.2-1.9-24.2-5.8c-6.9-3.8-12.3-9.2-16.2-16.1c-3.8-6.9-5.8-14.8-5.8-23.7s1.9-16.9,5.8-23.8c3.8-6.9,9.2-12.3,16.2-16.3
		c6.9-3.9,14.8-5.9,23.7-5.9C144.3,56.5,154.9,60.6,162,68.6z M148,78.4c-4.5-4.2-10.5-6.2-17.8-6.2c-7.1,0-13,2.1-17.7,6.2
		c-4.7,4.2-7.6,9.9-8.8,17.1h51.5C155,88.3,152.5,82.6,148,78.4z"/>
	<path fill="#0747A6" d="M385.2,147.4h-19.4V132c-3.3,5.3-7.6,9.3-12.9,12.1c-5.4,2.8-11.6,4.1-18.7,4.1c-8.6,0-16.1-1.9-22.6-5.8
		s-11.5-9.3-15.1-16.3c-3.6-7-5.4-15-5.4-24.1c0-8.9,1.8-16.8,5.4-23.7s8.7-12.3,15.1-16.1c6.5-3.8,13.9-5.8,22.3-5.8
		c7.2,0,13.5,1.4,18.9,4.3c5.3,2.8,9.7,6.9,13.2,12.2V21.7l19.4,20.6v67.2v37.9H385.2z M355.3,123.8c5.1-5.5,7.7-12.5,7.7-21.1
		c0-8.7-2.6-15.8-7.7-21.3s-11.8-8.3-19.9-8.3s-14.7,2.8-19.9,8.3c-5.2,5.5-7.8,12.6-7.9,21.3c0.1,8.6,2.7,15.7,7.9,21.1
		c5.2,5.5,11.8,8.2,19.9,8.2S350.1,129.3,355.3,123.8z"/>
	<path fill="#0747A6" d="M267.1,65.8c6,6.2,8.9,14.7,8.9,25.5v56.1h-19.5V96.8c0-6.8-1.9-12.1-5.8-16.1c-3.8-3.9-9.1-5.9-15.9-5.9
		c-7.2,0.1-13.1,2.4-17.7,6.9c-4.6,4.5-7.2,10.4-7.9,17.6v48l-19.5-20.5V91.6c0-7.4,15-35.6,49.2-36.6
		C249.5,54.8,261.2,59.6,267.1,65.8z"/>
</g>
</svg>
